<svg width="51" height="23" fill="none" xmlns="http://www.w3.org/2000/svg"><path d="M16.7 18.6v-.2-.2c-.1-.1-1.1-1.6-3.8-1.6-1 0-1.6-.3-2-.7V15c.4-.3 1.1-.7 2.1-.7 1.3 0 2 .6 2.4 1 0 0 .1.1.2.1s.2 0 .2-.1l.9-.8c.1-.1.1-.3 0-.4 0 0-1.1-1.6-3.8-1.6-2.3 0-3.5 1.2-3.7 1.5-.1 0-.1.1-.1.2V16.6s1.1 1.6 3.8 1.6c1 0 1.6.3 2 .7v.9c-.4.3-1.1.7-2.1.7-1.3 0-2-.6-2.3-1 0 0-.1-.1-.2-.1s-.2 0-.2.1l-.9.8c-.1.1-.1.3 0 .4 0 0 1.1 1.6 3.8 1.6 2.6 0 3.7-1.5 3.8-1.6v-2.1h-.1zM7.7 14.3s-1.1-1.6-3.8-1.6c-2.6 0-3.7 1.5-3.8 1.6-.1.1-.1.3 0 .4l.9.8s.1.1.2.1.2 0 .2-.1c.3-.4 1.1-1 2.4-1 1 0 1.6.3 2 .7v1.4c-.6-.2-1.3-.3-2-.3-2.6 0-3.7 1.5-3.8 1.6v3.2s1.1 1.6 3.8 1.6c1.1 0 1.9-.3 2.5-.6.3.2.9.5.9.5h.2c.2 0 .3-.1.3-.3v-7.6-.4zm-3.8 6.4c-1 0-1.6-.3-2-.7v-1.4c.4-.3 1.1-.7 2.1-.7s1.6.3 2 .7V20c-.5.3-1.1.7-2.1.7zM39.2 14.3s-1.1-1.6-3.8-1.6c-2.7 0-3.7 1.5-3.8 1.6-.1.1-.1.3 0 .4l.9.8s.1.1.2.1.2 0 .2-.1c.3-.4 1.1-1 2.4-1 1 0 1.6.3 2 .7v1.4c-.6-.2-1.3-.3-2-.3-2.7 0-3.7 1.5-3.8 1.6v3.2s1.1 1.6 3.8 1.6c1.1 0 1.9-.3 2.5-.6.3.2.9.5.9.5h.2c.2 0 .3-.1.3-.3v-7.6-.4zm-3.8 6.4c-1 0-1.6-.3-2-.7v-1.4c.4-.3 1.1-.7 2.1-.7s1.6.3 2 .7V20c-.5.3-1.1.7-2.1.7zM23.6 22v-.1l-.4-1.1c0-.1-.1-.2-.3-.2h-.1c-.3.1-1.7.3-2.9-.6v-5.5h.9s.2 0 .3-.1l.7-1.2V13c0-.2-.1-.3-.3-.3h-1.6v-1.2c-.1-.3-1.6-.3-1.8 0V20.8c1.8 2.1 5 1.4 5.1 1.4.2.1.4-.1.4-.2zM30.2 12.9s0-.1 0 0c-.1 0-1.8-.4-3.4.2V13c-.1-.3-1.6-.3-1.8 0v9.2c.2.3 1.6.3 1.8 0v-7c1.2-1 2.5-.7 2.9-.6h.1c.1 0 .2-.1.3-.2l.4-1.1v-.1c-.1-.2-.2-.3-.3-.3z" fill="#999"/><path d="M30.2 12.9s0-.1 0 0c-.1 0-1.8-.4-3.4.2V13c-.1-.3-1.6-.3-1.8 0v9.2c.2.3 1.6.3 1.8 0v-7c1.2-1 2.5-.7 2.9-.6h.1c.1 0 .2-.1.3-.2l.4-1.1v-.1c-.1-.2-.2-.3-.3-.3zM45.2 5.2H47l-1.4 1 1.7.5L49.8 5c.2-.1.3-.3.2-.6l-.1-.4v-.1c-.1-.2-.3-.2-.5-.2l-3.1.1-1.1 1.4z" fill="#999"/><path d="M46.9 7.5L45.3 7l.6 1.7-1.6-1.1c-.1-.1-.2-.1-.3-.1-.1 0-.3 0-.3.1l-1.5 1.1.6-1.8v-.2c0-.2-.1-.4-.3-.5l-1.5-1h1.9c.3 0 .5-.2.6-.4l.6-1.8.5 1.7 1-1.4-.9-2.9s0-.1-.1-.2-.3-.2-.4-.2h-.4c-.2 0-.3.1-.4.2 0 0-.1.1-.1.2l-1 3.4-3.5-.1c-.2 0-.4 0-.5.2V4l-.1.4c0 .2 0 .4.2.6l2.9 2-1.2 3.3c-.1.2-.1.4 0 .5l.1.1c.1 0 .2.2.3.3.2.1.4.1.6 0L43.9 9l2.8 2.2c.2.1.4.1.6 0 .1-.1.3-.2.3-.3l.1-.1c.1-.2.1-.4 0-.5l-.8-2.8z" fill="#999"/></svg>