<svg xmlns="http://www.w3.org/2000/svg" viewBox="0 0 64.3 25"><g data-name="Слой 2"><path d="M0 .16A.16.16 0 0 1 .16 0h17.09a12.69 12.69 0 0 1 8.63 3.41.15.15 0 0 1-.1.27H.16A.16.16 0 0 1 0 3.53zm28.62 7.05a11.37 11.37 0 0 1 1 3.43.15.15 0 0 1-.13.18H.16a.16.16 0 0 1-.16-.15V7.25a.17.17 0 0 1 .16-.16h28.28a.2.2 0 0 1 .18.12zm1 7.19a11.81 11.81 0 0 1-1 3.38.2.2 0 0 1-.19.12H.16a.16.16 0 0 1-.16-.16v-3.37a.16.16 0 0 1 .16-.15h29.35a.16.16 0 0 1 .15.18zm-3.88 6.92a.15.15 0 0 1 .1.27A12.69 12.69 0 0 1 17.25 25H.16a.16.16 0 0 1-.16-.16v-3.37a.16.16 0 0 1 .16-.15zM32 0h32.14a.15.15 0 0 1 .14.23l-1.79 3.29a.32.32 0 0 1-.27.16H32a.16.16 0 0 1-.16-.15V.16A.16.16 0 0 1 32 0zm28.46 7.32l-1.76 3.33a.32.32 0 0 1-.28.16H44a.16.16 0 0 1-.14-.23l1.76-3.33a.3.3 0 0 1 .27-.16h14.43a.16.16 0 0 1 .13.23zm-3.8 7.13l-1.75 3.29a.35.35 0 0 1-.27.17H40.2a.16.16 0 0 1-.14-.23l1.75-3.29a.33.33 0 0 1 .27-.17h14.44a.15.15 0 0 1 .14.23zm-3.79 7.09l-1.8 3.29a.3.3 0 0 1-.27.16H36.36a.16.16 0 0 1-.16-.15.24.24 0 0 1 0-.08l1.8-3.29a.29.29 0 0 1 .27-.16h14.46a.16.16 0 0 1 .14.23z" fill="#666" data-name="Слой 1"/></g></svg>